<?xml version="1.0" encoding="UTF-8"?>
<svg version="1.1" xmlns="http://www.w3.org/2000/svg" width="512" height="512">
<path d="M0 0 C1.7674788 0.74318151 3.53702641 1.48146171 5.30859375 2.21484375 C6.16437012 2.5691748 7.02014648 2.92350586 7.90185547 3.28857422 C44.25485881 17.78706796 88.77720891 14.99076338 124.375 -0.125 C125.16503418 -0.48287598 125.95506836 -0.84075195 126.76904297 -1.20947266 C132.49634483 -3.74054271 137.28791872 -5.03078282 143.40991211 -3.08251953 C145.72138301 -2.15834536 147.98249122 -1.15215419 150.25 -0.125 C190.66892828 17.03794572 234.80441276 15.81811806 275.24511719 0.08764648 C277.21456337 -0.71031878 279.14839896 -1.56550388 281.0859375 -2.4375 C283.92268237 -3.59143012 285.79657218 -4.18187327 288.8125 -4.1875 C289.5034375 -4.20683594 290.194375 -4.22617187 290.90625 -4.24609375 C297.14854881 -2.9591263 301.90501099 1.37554476 306.2890625 5.7578125 C306.82220062 6.2833371 307.35533875 6.80886169 307.90463257 7.35031128 C309.02260722 8.45755291 310.13671492 9.56871158 311.24707031 10.68359375 C312.9265488 12.36404248 314.62619121 14.02202367 316.328125 15.6796875 C323.3301572 22.5981503 330.26655155 29.48241682 330.85546875 39.87109375 C330.56096007 44.58219927 328.8309189 48.20618026 326.625 52.3125 C322.55843192 60.43307118 319.57151794 68.45909299 317.3125 77.25 C316.9928125 78.4565625 316.673125 79.663125 316.34375 80.90625 C309.8409666 110.53004105 315.98033717 140.77991626 322.27380371 169.8157959 C325.1791321 183.22197652 327.5466708 196.64137364 329.3125 210.25 C329.42964355 211.10835449 329.54678711 211.96670898 329.66748047 212.85107422 C333.05489653 238.50584343 334.13685522 267.92244141 328.3125 293.25 C328.15152832 293.96978027 327.99055664 294.68956055 327.82470703 295.43115234 C320.85575929 325.24164639 301.72155958 351.92891958 278.3125 371.25 C277.466875 371.98347656 276.62125 372.71695312 275.75 373.47265625 C242.98543897 401.56292529 204.18552297 419.5134162 165.08081055 436.84887695 C163.94812744 437.35249756 162.81544434 437.85611816 161.6484375 438.375 C160.56788086 438.85453125 159.48732422 439.3340625 158.37402344 439.828125 C154.75672706 441.50811975 151.27012639 443.38298725 147.81103516 445.3671875 C142.97844134 447.07469769 138.81107201 446.80636429 134.11132812 445.06152344 C132.49387695 444.21895996 132.49387695 444.21895996 130.84375 443.359375 C124.26322022 440.07760934 117.56207624 437.26649731 110.71875 434.578125 C109.67638184 434.16647095 108.63401367 433.75481689 107.56005859 433.33068848 C103.23819125 431.62657887 98.91348607 429.92986442 94.5859375 428.24023438 C82.86410389 423.65559994 71.26572614 418.92525666 59.8984375 413.51171875 C58.99105835 413.0807489 58.0836792 412.64977905 57.14880371 412.20574951 C34.24204176 401.08712952 12.57083135 385.69688785 -6.18359375 368.52734375 C-7.84316009 367.01794098 -9.52292286 365.53042931 -11.22265625 364.06640625 C-17.47621863 358.64407473 -22.62627165 352.78667478 -27.6875 346.25 C-28.78191406 344.91388672 -28.78191406 344.91388672 -29.8984375 343.55078125 C-50.78126164 317.28238668 -56.91499098 286.21559374 -56.9375 253.4375 C-56.93817474 252.55250824 -56.93884949 251.66751648 -56.93954468 250.75570679 C-56.89951352 217.50851851 -51.32430199 185.20123203 -44.09863281 152.82714844 C-40.98308708 138.75592142 -39.29222835 125.04695565 -39.3125 110.625 C-39.31337616 109.93234039 -39.31425232 109.23968079 -39.31515503 108.52603149 C-39.40259404 87.42539458 -43.48832499 67.31449454 -53.625 48.625 C-56.68886183 42.81074075 -56.44979872 38.04509529 -54.75 31.8125 C-52.0898877 26.52806167 -47.77141658 22.44596459 -43.6875 18.25 C-42.96771973 17.50443848 -42.24793945 16.75887695 -41.50634766 15.99072266 C-39.01571207 13.41982489 -36.51039702 10.86409819 -34 8.3125 C-33.18015625 7.47106445 -32.3603125 6.62962891 -31.515625 5.76269531 C-21.03815266 -4.77014579 -13.39300208 -5.94357024 0 0 Z " fill="#00838F" transform="translate(118.6875,34.75)"/>
<path d="M0 0 C1.58745767 2.31320328 2.624875 4.22449015 3.71875 6.76171875 C4.40088745 8.23033224 5.08455866 9.69823404 5.76953125 11.16552734 C6.12805176 11.95054626 6.48657227 12.73556519 6.85595703 13.54437256 C8.84771444 17.81957401 11.01367031 22.00600536 13.15625 26.20703125 C14.04267007 27.96368675 14.92808071 29.72085195 15.8125 31.47851562 C17.16999296 34.17489555 18.52929529 36.87027512 19.89453125 39.56274414 C21.23735974 42.21222985 22.57254502 44.86544379 23.90625 47.51953125 C24.52481873 48.73344292 24.52481873 48.73344292 25.15588379 49.97187805 C25.53047729 50.72083847 25.9050708 51.46979889 26.29101562 52.24145508 C26.62218384 52.89712967 26.95335205 53.55280426 27.29455566 54.22834778 C28 56 28 56 28 59 C29.42699219 59.14695312 29.42699219 59.14695312 30.8828125 59.296875 C49.36103547 61.25088878 67.85074662 63.54703167 86.1875 66.5625 C87.45980469 66.77003906 88.73210937 66.97757812 90.04296875 67.19140625 C93 68 93 68 94.98828125 69.21484375 C96 71 96 71 96.078125 73.80859375 C94.64115926 78.0622206 92.04959967 80.21080979 88.75 83.0625 C87.32159012 84.39050167 85.89463994 85.72007426 84.46875 87.05078125 C81.47735299 89.7996482 78.44544566 92.48171964 75.3359375 95.09521484 C59.25084175 107.6252338 59.25084175 107.6252338 49.00878906 124.49023438 C48.67986238 131.53866326 50.65247238 137.8724492 52.90332031 144.48779297 C54.84940307 150.72028328 55.71762759 157.12795085 56.75 163.5625 C56.97026855 164.75746094 57.19053711 165.95242188 57.41748047 167.18359375 C59.89690393 180.75598468 59.89690393 180.75598468 59 187 C57 189 57 189 54.20507812 189.27636719 C50.75150384 188.9785727 48.7594039 188.2036107 45.71875 186.578125 C44.72206299 186.0526709 43.72537598 185.5272168 42.69848633 184.98583984 C41.64298584 184.4130127 40.58748535 183.84018555 39.5 183.25 C37.85777466 182.37722412 37.85777466 182.37722412 36.18237305 181.48681641 C32.77999216 179.67276877 29.38855066 177.83973722 26 176 C24.9373291 175.42411133 23.8746582 174.84822266 22.77978516 174.25488281 C18.01855008 171.67091852 13.26480158 169.07409132 8.51953125 166.4609375 C7.33738037 165.82043457 7.33738037 165.82043457 6.13134766 165.16699219 C4.32358321 164.17717385 2.53971362 163.14390931 0.76171875 162.1015625 C-2.85038895 160.66080667 -4.27018783 160.84109408 -8 162 C-11.58470419 163.61758237 -15.03787538 165.44915032 -18.5 167.3125 C-19.50232666 167.84359375 -20.50465332 168.3746875 -21.53735352 168.921875 C-29.60697469 173.21187766 -37.63631763 177.57889147 -45.640625 181.98950195 C-60.22619471 190.01682185 -60.22619471 190.01682185 -63.875 189.9375 C-66 189 -66 189 -68 186 C-68.17699026 178.23808604 -66.27200771 170.2916928 -64.86328125 162.69140625 C-64.44677491 160.37573925 -64.03077371 158.05998135 -63.61523438 155.74414062 C-62.96225406 152.13312247 -62.30520918 148.52298357 -61.6394043 144.91430664 C-60.99403998 141.4045012 -60.36496478 137.89208814 -59.73828125 134.37890625 C-59.53423172 133.29662247 -59.33018219 132.21433868 -59.11994934 131.09925842 C-58.9428392 130.09398605 -58.76572906 129.08871368 -58.58325195 128.05297852 C-58.4219429 127.1712648 -58.26063385 126.28955109 -58.09443665 125.38111877 C-57.92868768 121.20193634 -59.73615774 119.28961519 -62.48681641 116.27026367 C-63.51977407 115.23088013 -64.55838301 114.19709275 -65.6015625 113.16796875 C-66.15685638 112.61313309 -66.71215027 112.05829742 -67.28427124 111.48664856 C-68.46042442 110.31351211 -69.63900276 109.14280271 -70.81982422 107.97436523 C-72.60303454 106.20924266 -74.37828024 104.43641977 -76.15234375 102.66210938 C-81.93540572 96.89735129 -87.77734446 91.29318849 -94 86 C-95.66625516 84.50156911 -97.31632745 82.98459436 -98.9375 81.4375 C-99.68902344 80.73496094 -100.44054687 80.03242188 -101.21484375 79.30859375 C-103.41281376 76.46614238 -103.92792625 74.579663 -104 71 C-102.26257163 68.37009323 -100.86381202 67.96112335 -97.80566406 67.08813477 C-96.46202008 66.83504095 -95.11491048 66.59995903 -93.765625 66.37890625 C-93.02338684 66.24996475 -92.28114868 66.12102325 -91.51641846 65.98817444 C-86.23337594 65.15036919 -81.04268168 64.83993997 -75.69908142 64.72187805 C-53.92367738 64.78370245 -53.92367738 64.78370245 -34.83746338 56.06506348 C-26.37422731 46.16238082 -22.05292841 33.28939526 -17.86376953 21.14111328 C-16.11663232 16.1523534 -13.99542912 11.43393917 -11.62109375 6.71484375 C-11.28707047 6.04312637 -10.95304718 5.371409 -10.60890198 4.67933655 C-7.80110919 -0.77515098 -6.05991595 -1.9211 0 0 Z " fill="#FFE082" transform="translate(260,139)"/>
<path d="M0 0 C38.89848124 13.25461256 86.57020619 13.65936802 125.04736328 -1.02270508 C128.97994481 -2.0416012 131.56515306 -1.93168616 135.48486328 -0.91333008 C137.73140254 2.45647882 137.68251529 3.86799912 136.97705078 7.76245117 C136.73341797 8.91293945 136.73341797 8.91293945 136.48486328 10.08666992 C136.36369141 10.94647461 136.24251953 11.8062793 136.11767578 12.69213867 C135.36654221 15.83113515 134.59318824 17.62404139 132.48486328 20.08666992 C127.03146992 22.55497639 121.3817797 23.28497434 115.48486328 24.08666992 C114.48922363 24.23185059 113.49358398 24.37703125 112.46777344 24.52661133 C78.66305524 29.35585678 42.50481916 28.28294314 10.55517578 15.00463867 C3.3671092 12.85553479 -2.20950873 14.34427058 -9.01513672 16.77416992 C-49.69946418 30.37207879 -94.3803733 31.14602291 -134.99951172 17.03979492 C-138.70224316 16.03594329 -141.69753284 15.7669691 -145.51513672 16.08666992 C-146.17513672 16.74666992 -146.83513672 17.40666992 -147.51513672 18.08666992 C-147.40672008 24.48325159 -145.6623472 29.78631182 -143.53344727 35.78466797 C-139.09136382 48.73368489 -136.42776567 63.24425317 -136.27685547 76.91479492 C-136.26697098 77.65227463 -136.25708649 78.38975433 -136.24690247 79.14958191 C-135.97205187 105.0776073 -139.56556593 129.12433611 -145.04690552 154.41525269 C-154.04739557 195.97326964 -163.87152951 249.64801075 -141.23388672 288.48120117 C-138.46268837 292.68208595 -135.45607573 296.6786597 -132.37060547 300.65307617 C-130.51513672 303.08666992 -130.51513672 303.08666992 -129.51513672 305.08666992 C-147.80234519 296.78743557 -160.75441511 272.59134397 -167.82763672 254.78198242 C-180.85264182 216.37737179 -171.46811369 166.47564674 -161.95263672 128.52416992 C-152.63331586 90.53649424 -150.15932932 46.05269789 -165.71044922 9.25854492 C-166.93315727 5.95842028 -166.33891836 3.44516431 -165.51513672 0.08666992 C-162.06333399 -2.2145319 -160.61098076 -1.96882387 -156.62939453 -1.34936523 C-153.45114586 -0.69389732 -150.45214441 0.33110461 -147.39013672 1.39916992 C-140.7484111 3.59836366 -134.0849502 5.0941112 -127.20263672 6.33666992 C-125.86144775 6.58090698 -125.86144775 6.58090698 -124.49316406 6.83007812 C-89.40693912 12.90803227 -52.80756751 8.70624251 -19.47143555 -3.38012695 C-12.77837756 -5.20436739 -6.25156178 -2.19394128 0 0 Z " fill="#005662" transform="translate(270.51513671875,73.913330078125)"/>
<path d="M0 0 C1.91225054 2.11085223 3.21767502 4.25916488 4 7 C3.49338421 10.53951128 2.48503741 13.41974655 0.91455078 16.61914062 C0.48385284 17.50355835 0.05315491 18.38797607 -0.39059448 19.29919434 C-0.85724518 20.24202271 -1.32389587 21.18485107 -1.8046875 22.15625 C-2.28447052 23.13613892 -2.76425354 24.11602783 -3.25857544 25.12561035 C-4.27300059 27.19462164 -5.29022907 29.2622605 -6.31005859 31.32861328 C-7.86788702 34.4855854 -9.41709934 37.64666757 -10.96484375 40.80859375 C-11.95262169 42.82055968 -12.94088679 44.83228653 -13.9296875 46.84375 C-14.39228973 47.78657837 -14.85489197 48.72940674 -15.33151245 49.70080566 C-20.16661662 59.48622839 -20.16661662 59.48622839 -22 62 C-24.85193471 62.77980133 -27.27635027 63.20410405 -30.1875 63.5 C-31.98600275 63.7252797 -33.78415731 63.95334959 -35.58203125 64.18359375 C-36.58830566 64.30718262 -37.59458008 64.43077148 -38.63134766 64.55810547 C-44.53158762 65.33208969 -50.40363185 66.29123074 -56.2796936 67.22851562 C-66.84064657 68.9118939 -77.40896041 70.51741907 -88 72 C-88 74.64 -88 77.28 -88 80 C-87.41334061 80.26101501 -86.82668121 80.52203003 -86.22224426 80.79095459 C-83.86286641 82.07460959 -82.32746703 83.43761743 -80.4440918 85.34472656 C-79.76626144 86.02593567 -79.08843109 86.70714478 -78.39006042 87.40899658 C-77.3055938 88.51365265 -77.3055938 88.51365265 -76.19921875 89.640625 C-75.44461868 90.40042664 -74.69001862 91.16022827 -73.91255188 91.9430542 C-71.49940617 94.37400536 -69.0930316 96.81151591 -66.6875 99.25 C-64.29186411 101.67336595 -61.89475171 104.09522214 -59.49458313 106.51409912 C-58.00248083 108.01833234 -56.51305845 109.52523028 -55.02677917 111.03521729 C-54.33949234 111.72903503 -53.65220551 112.42285278 -52.9440918 113.13769531 C-52.28960052 113.80305298 -51.63510925 114.46841064 -50.96078491 115.15393066 C-49.04853957 116.95430023 -47.05190211 118.41439021 -44.92504883 119.94824219 C-42.91550057 121.64396514 -42.08572512 122.3757661 -41.72488403 125.00334167 C-41.96530396 127.40504723 -42.43914034 129.65280073 -43 132 C-43.28925029 133.67408178 -43.57168962 135.34935223 -43.84790039 137.02563477 C-44.17849503 138.83138045 -44.51186062 140.63662051 -44.84765625 142.44140625 C-45.20920814 144.42639155 -45.57052934 146.41141887 -45.93164062 148.39648438 C-46.49723058 151.48645888 -47.06499867 154.57599364 -47.63696289 157.66479492 C-48.19257781 160.6725651 -48.73941936 163.68183036 -49.28515625 166.69140625 C-49.45700943 167.60620255 -49.62886261 168.52099884 -49.80592346 169.46351624 C-50.7555056 174.73534694 -51.17109309 179.64311036 -51 185 C-52.5529276 185.87144869 -54.11785436 186.72153657 -55.6875 187.5625 C-56.55761719 188.03816406 -57.42773438 188.51382813 -58.32421875 189.00390625 C-61.43699681 190.16267764 -62.9001151 190.13539226 -66 189 C-70.56237798 182.15643303 -66.2911641 170.39504433 -64.86328125 162.69140625 C-64.44677491 160.37573925 -64.03077371 158.05998135 -63.61523438 155.74414062 C-62.96225406 152.13312247 -62.30520918 148.52298357 -61.6394043 144.91430664 C-60.99403998 141.4045012 -60.36496478 137.89208814 -59.73828125 134.37890625 C-59.53423172 133.29662247 -59.33018219 132.21433868 -59.11994934 131.09925842 C-58.9428392 130.09398605 -58.76572906 129.08871368 -58.58325195 128.05297852 C-58.4219429 127.1712648 -58.26063385 126.28955109 -58.09443665 125.38111877 C-57.92868768 121.20193634 -59.73615774 119.28961519 -62.48681641 116.27026367 C-63.51977407 115.23088013 -64.55838301 114.19709275 -65.6015625 113.16796875 C-66.15685638 112.61313309 -66.71215027 112.05829742 -67.28427124 111.48664856 C-68.46042442 110.31351211 -69.63900276 109.14280271 -70.81982422 107.97436523 C-72.60303454 106.20924266 -74.37828024 104.43641977 -76.15234375 102.66210938 C-81.93540572 96.89735129 -87.77734446 91.29318849 -94 86 C-95.66625516 84.50156911 -97.31632745 82.98459436 -98.9375 81.4375 C-99.68902344 80.73496094 -100.44054687 80.03242188 -101.21484375 79.30859375 C-103.41281376 76.46614238 -103.92792625 74.579663 -104 71 C-102.26257163 68.37009323 -100.86381202 67.96112335 -97.80566406 67.08813477 C-96.46202008 66.83504095 -95.11491048 66.59995903 -93.765625 66.37890625 C-93.02338684 66.24996475 -92.28114868 66.12102325 -91.51641846 65.98817444 C-86.23337594 65.15036919 -81.04268168 64.83993997 -75.69908142 64.72187805 C-53.92367738 64.78370245 -53.92367738 64.78370245 -34.83746338 56.06506348 C-26.37422731 46.16238082 -22.05292841 33.28939526 -17.86376953 21.14111328 C-16.11663232 16.1523534 -13.99542912 11.43393917 -11.62109375 6.71484375 C-11.28707047 6.04312637 -10.95304718 5.371409 -10.60890198 4.67933655 C-7.80366992 -0.77017645 -6.0551835 -1.93765872 0 0 Z " fill="#FFB300" transform="translate(260,139)"/>
</svg>
